<svg width="724" height="71" viewBox="0 0 724 71" fill="none" xmlns="http://www.w3.org/2000/svg">
<g filter="url(#filter0_i_101_378)">
<path d="M3.14875 1.8H69.3888C70.0928 1.8 70.7008 2.056 71.2128 2.568C71.7248 3.08 71.9808 3.688 71.9808 4.392V19.848C71.9808 20.552 71.7248 21.16 71.2128 21.672C70.7008 22.184 70.0928 22.44 69.3888 22.44H48.7488V66.408C48.7488 67.112 48.4928 67.72 47.9808 68.232C47.4688 68.744 46.8608 69 46.1567 69H26.3808C25.6768 69 25.0688 68.744 24.5568 68.232C24.0448 67.72 23.7888 67.112 23.7888 66.408V22.44H3.14875C2.44475 22.44 1.83675 22.184 1.32475 21.672C0.81275 21.16 0.55675 20.552 0.55675 19.848V4.392C0.55675 3.688 0.81275 3.08 1.32475 2.568C1.83675 2.056 2.44475 1.8 3.14875 1.8ZM132.903 1.8H152.967C153.543 1.8 154.023 2.024 154.407 2.472C154.855 2.856 155.079 3.272 155.079 3.72C155.079 4.168 154.983 4.584 154.791 4.96799L130.599 45V66.408C130.599 67.112 130.343 67.72 129.831 68.232C129.319 68.744 128.711 69 128.007 69H107.559C106.855 69 106.247 68.744 105.735 68.232C105.223 67.72 104.967 67.112 104.967 66.408V45L80.8713 4.96799C80.6793 4.584 80.5833 4.168 80.5833 3.72C80.5833 3.272 80.7753 2.856 81.1593 2.472C81.6073 2.024 82.1193 1.8 82.6953 1.8H102.951C104.743 1.8 106.055 2.536 106.887 4.008L117.735 23.016L128.871 4.2C129.831 2.6 131.175 1.8 132.903 1.8ZM173.282 1.8H209.186C218.274 1.8 225.474 4.008 230.786 8.424C236.098 12.84 238.754 18.504 238.754 25.416C238.754 32.328 236.514 37.832 232.034 41.928C227.554 45.96 219.938 47.976 209.186 47.976H196.514V66.408C196.514 67.112 196.258 67.72 195.746 68.232C195.234 68.744 194.626 69 193.922 69H173.282C172.578 69 171.97 68.744 171.458 68.232C170.946 67.72 170.69 67.112 170.69 66.408V4.392C170.69 3.688 170.946 3.08 171.458 2.568C171.97 2.056 172.578 1.8 173.282 1.8ZM196.61 19.656V30.216H208.802C210.274 30.216 211.458 29.768 212.354 28.872C213.314 27.976 213.794 26.728 213.794 25.128C213.794 23.528 213.346 22.216 212.45 21.192C211.554 20.168 210.338 19.656 208.802 19.656H196.61ZM273.756 50.28H312.06C312.764 50.28 313.372 50.536 313.884 51.048C314.396 51.56 314.652 52.168 314.652 52.872V66.408C314.652 67.112 314.396 67.72 313.884 68.232C313.372 68.744 312.764 69 312.06 69H251.388C250.684 69 250.076 68.744 249.564 68.232C249.052 67.72 248.796 67.112 248.796 66.408V4.392C248.796 3.688 249.052 3.08 249.564 2.568C250.076 2.056 250.684 1.8 251.388 1.8H311.1C311.804 1.8 312.412 2.056 312.924 2.568C313.436 3.08 313.692 3.688 313.692 4.392V17.928C313.692 18.632 313.436 19.24 312.924 19.752C312.412 20.264 311.804 20.52 311.1 20.52H273.756V26.568H305.82C306.524 26.568 307.132 26.824 307.644 27.336C308.156 27.848 308.412 28.456 308.412 29.16V41.64C308.412 42.344 308.156 42.952 307.644 43.464C307.132 43.976 306.524 44.232 305.82 44.232H273.756V50.28ZM551.18 62.952C544.908 67.624 536.396 69.96 525.644 69.96C514.892 69.96 506.348 67.624 500.012 62.952C493.74 58.28 490.604 50.984 490.604 41.064V4.392C490.604 3.688 490.86 3.08 491.372 2.568C491.884 2.056 492.492 1.8 493.196 1.8H513.26C513.964 1.8 514.572 2.056 515.084 2.568C515.596 3.08 515.852 3.688 515.852 4.392V42.6C515.852 45.224 516.716 47.24 518.444 48.648C520.236 50.056 522.636 50.76 525.644 50.76C528.652 50.76 531.02 50.056 532.748 48.648C534.54 47.24 535.436 45.224 535.436 42.6V4.392C535.436 3.688 535.692 3.08 536.204 2.568C536.716 2.056 537.324 1.8 538.028 1.8H558.092C558.796 1.8 559.404 2.056 559.916 2.568C560.428 3.08 560.684 3.688 560.684 4.392V41.064C560.684 50.984 557.516 58.28 551.18 62.952ZM612.486 26.184C622.982 27.4 630.438 29.672 634.854 33C639.334 36.264 641.574 41.192 641.574 47.784C641.574 54.376 638.342 59.72 631.878 63.816C625.414 67.912 616.838 69.96 606.15 69.96C595.462 69.96 587.142 68.008 581.19 64.104C575.302 60.136 572.358 55.272 572.358 49.512C572.358 48.104 573.094 47.4 574.566 47.4H594.246C595.59 47.4 596.678 47.816 597.51 48.648C599.302 50.376 602.406 51.24 606.822 51.24C612.902 51.24 615.942 50.312 615.942 48.456C615.942 47.304 614.982 46.408 613.062 45.768C611.142 45.064 607.334 44.392 601.638 43.752C583.526 41.576 574.47 34.632 574.47 22.92C574.47 16.328 577.382 11.016 583.206 6.984C589.03 2.888 596.806 0.839996 606.534 0.839996C616.326 0.839996 624.23 2.984 630.246 7.272C636.262 11.496 639.27 15.976 639.27 20.712C639.27 21.352 639.046 21.864 638.598 22.248C638.214 22.632 637.67 22.824 636.966 22.824H616.326C615.174 22.824 614.182 22.44 613.35 21.672C611.814 20.264 609.51 19.56 606.438 19.56C602.15 19.56 600.006 20.456 600.006 22.248C600.006 23.208 600.838 23.976 602.502 24.552C604.166 25.064 607.494 25.608 612.486 26.184ZM700.961 1.8H720.737C721.441 1.8 722.049 2.056 722.561 2.568C723.073 3.08 723.329 3.688 723.329 4.392V66.408C723.329 67.112 723.073 67.72 722.561 68.232C722.049 68.744 721.441 69 720.737 69H700.961C700.257 69 699.649 68.744 699.137 68.232C698.625 67.72 698.369 67.112 698.369 66.408V45.96H679.169V66.408C679.169 67.112 678.913 67.72 678.401 68.232C677.889 68.744 677.281 69 676.577 69H656.801C656.097 69 655.489 68.776 654.977 68.328C654.465 67.816 654.209 67.176 654.209 66.408V4.392C654.209 3.688 654.465 3.08 654.977 2.568C655.489 2.056 656.097 1.8 656.801 1.8H676.577C677.281 1.8 677.889 2.056 678.401 2.568C678.913 3.08 679.169 3.688 679.169 4.392V24.072H698.369V4.392C698.369 3.688 698.625 3.08 699.137 2.568C699.649 2.056 700.257 1.8 700.961 1.8Z" fill="white"/>
<path d="M482.193 66.024C482.321 66.28 482.385 66.632 482.385 67.08C482.385 67.528 482.161 67.976 481.713 68.424C481.329 68.808 480.849 69 480.273 69H458.481C456.561 69 455.217 68.2 454.449 66.6L446.001 47.592H437.937V66.408C437.937 67.112 437.681 67.72 437.169 68.232C436.657 68.744 436.049 69 435.345 69H414.609C413.905 69 413.297 68.744 412.785 68.232C412.273 67.72 412.017 67.112 412.017 66.408V4.392C412.017 3.688 412.273 3.08 412.785 2.568C413.297 2.056 413.905 1.8 414.609 1.8H451.953C460.721 1.8 467.665 3.88 472.785 8.04C477.905 12.2 480.465 17.864 480.465 25.032C480.465 33.736 477.105 40.04 470.385 43.944L482.193 66.024ZM437.937 19.656V29.832H449.937C451.345 29.832 452.433 29.384 453.201 28.488C453.969 27.528 454.353 26.344 454.353 24.936C454.353 23.528 453.969 22.312 453.201 21.288C452.497 20.2 451.409 19.656 449.937 19.656H437.937Z" fill="white"/>
<path d="M482.193 66.024C482.321 66.28 482.385 66.632 482.385 67.08C482.385 67.528 482.161 67.976 481.713 68.424C481.329 68.808 480.849 69 480.273 69H458.481C456.561 69 455.217 68.2 454.449 66.6L446.001 47.592H437.937V66.408C437.937 67.112 437.681 67.72 437.169 68.232C436.657 68.744 436.049 69 435.345 69H414.609C413.905 69 413.297 68.744 412.785 68.232C412.273 67.72 412.017 67.112 412.017 66.408V4.392C412.017 3.688 412.273 3.08 412.785 2.568C413.297 2.056 413.905 1.8 414.609 1.8H451.953C460.721 1.8 467.665 3.88 472.785 8.04C477.905 12.2 480.465 17.864 480.465 25.032C480.465 33.736 477.105 40.04 470.385 43.944L482.193 66.024ZM437.937 19.656V29.832H449.937C451.345 29.832 452.433 29.384 453.201 28.488C453.969 27.528 454.353 26.344 454.353 24.936C454.353 23.528 453.969 22.312 453.201 21.288C452.497 20.2 451.409 19.656 449.937 19.656H437.937Z" fill="white"/>
</g>
<path d="M48.7487 22.44V21.94H48.2487V22.44H48.7487ZM47.9808 68.232L48.3343 68.5856L47.9808 68.232ZM24.5568 68.232L24.2032 68.5856L24.5568 68.232ZM23.7888 22.44H24.2888V21.94H23.7888V22.44ZM3.14875 1.8V2.3H69.3888V1.8V1.3H3.14875V1.8ZM69.3888 1.8V2.3C69.956 2.3 70.438 2.50032 70.8592 2.92155L71.2128 2.568L71.5663 2.21444C70.9635 1.61167 70.2295 1.3 69.3888 1.3V1.8ZM71.2128 2.568L70.8592 2.92155C71.2804 3.34278 71.4808 3.82478 71.4808 4.392H71.9808H72.4808C72.4808 3.55122 72.1691 2.81722 71.5663 2.21444L71.2128 2.568ZM71.9808 4.392H71.4808V19.848H71.9808H72.4808V4.392H71.9808ZM71.9808 19.848H71.4808C71.4808 20.4152 71.2804 20.8972 70.8592 21.3184L71.2128 21.672L71.5663 22.0256C72.1691 21.4228 72.4808 20.6888 72.4808 19.848H71.9808ZM71.2128 21.672L70.8592 21.3184C70.438 21.7397 69.956 21.94 69.3888 21.94V22.44V22.94C70.2295 22.94 70.9635 22.6283 71.5663 22.0256L71.2128 21.672ZM69.3888 22.44V21.94H48.7487V22.44V22.94H69.3888V22.44ZM48.7487 22.44H48.2487V66.408H48.7487H49.2487V22.44H48.7487ZM48.7487 66.408H48.2487C48.2487 66.9752 48.0484 67.4572 47.6272 67.8784L47.9808 68.232L48.3343 68.5856C48.9371 67.9828 49.2487 67.2488 49.2487 66.408H48.7487ZM47.9808 68.232L47.6272 67.8784C47.206 68.2997 46.724 68.5 46.1567 68.5V69V69.5C46.9975 69.5 47.7315 69.1883 48.3343 68.5856L47.9808 68.232ZM46.1567 69V68.5H26.3808V69V69.5H46.1567V69ZM26.3808 69V68.5C25.8135 68.5 25.3315 68.2997 24.9103 67.8784L24.5568 68.232L24.2032 68.5856C24.806 69.1883 25.54 69.5 26.3808 69.5V69ZM24.5568 68.232L24.9103 67.8784C24.4891 67.4572 24.2888 66.9752 24.2888 66.408H23.7888H23.2888C23.2888 67.2488 23.6004 67.9828 24.2032 68.5856L24.5568 68.232ZM23.7888 66.408H24.2888V22.44H23.7888H23.2888V66.408H23.7888ZM23.7888 22.44V21.94H3.14875V22.44V22.94H23.7888V22.44ZM3.14875 22.44V21.94C2.58153 21.94 2.09953 21.7397 1.6783 21.3184L1.32475 21.672L0.971197 22.0256C1.57397 22.6283 2.30797 22.94 3.14875 22.94V22.44ZM1.32475 21.672L1.6783 21.3184C1.25708 20.8972 1.05675 20.4152 1.05675 19.848H0.55675H0.0567503C0.0567503 20.6888 0.368421 21.4228 0.971197 22.0256L1.32475 21.672ZM0.55675 19.848H1.05675V4.392H0.55675H0.0567503V19.848H0.55675ZM0.55675 4.392H1.05675C1.05675 3.82478 1.25708 3.34278 1.6783 2.92155L1.32475 2.568L0.971197 2.21444C0.368421 2.81722 0.0567503 3.55122 0.0567503 4.392H0.55675ZM1.32475 2.568L1.6783 2.92155C2.09953 2.50032 2.58153 2.3 3.14875 2.3V1.8V1.3C2.30797 1.3 1.57397 1.61167 0.971197 2.21444L1.32475 2.568ZM154.407 2.472L154.028 2.79739L154.053 2.8266L154.082 2.85163L154.407 2.472ZM154.791 4.96799L155.219 5.2266L155.23 5.20949L155.238 5.1916L154.791 4.96799ZM130.599 45L130.171 44.7414L130.099 44.8607V45H130.599ZM129.831 68.232L129.478 67.8784L129.831 68.232ZM105.735 68.232L106.089 67.8784L105.735 68.232ZM104.967 45H105.467V44.8611L105.396 44.7421L104.967 45ZM80.8713 4.96799L80.424 5.1916L80.4328 5.20909L80.4429 5.22585L80.8713 4.96799ZM81.1592 2.472L81.5128 2.82555V2.82555L81.1592 2.472ZM106.887 4.008L106.452 4.25403L106.453 4.25583L106.887 4.008ZM117.735 23.016L117.301 23.2638L117.727 24.011L118.166 23.2707L117.735 23.016ZM128.871 4.2L128.443 3.94275L128.441 3.94534L128.871 4.2ZM132.903 1.8V2.3H152.967V1.8V1.3H132.903V1.8ZM152.967 1.8V2.3C153.393 2.3 153.736 2.45711 154.028 2.79739L154.407 2.472L154.787 2.1466C154.311 1.59089 153.693 1.3 152.967 1.3V1.8ZM154.407 2.472L154.082 2.85163C154.456 3.17268 154.579 3.4609 154.579 3.72H155.079H155.579C155.579 3.08309 155.254 2.53931 154.733 2.09237L154.407 2.472ZM155.079 3.72H154.579C154.579 4.09385 154.5 4.43286 154.344 4.74439L154.791 4.96799L155.238 5.1916C155.467 4.73513 155.579 4.24214 155.579 3.72H155.079ZM154.791 4.96799L154.363 4.70939L130.171 44.7414L130.599 45L131.027 45.2586L155.219 5.2266L154.791 4.96799ZM130.599 45H130.099V66.408H130.599H131.099V45H130.599ZM130.599 66.408H130.099C130.099 66.9752 129.899 67.4572 129.478 67.8784L129.831 68.232L130.185 68.5856C130.788 67.9828 131.099 67.2488 131.099 66.408H130.599ZM129.831 68.232L129.478 67.8784C129.056 68.2997 128.574 68.5 128.007 68.5V69V69.5C128.848 69.5 129.582 69.1883 130.185 68.5856L129.831 68.232ZM128.007 69V68.5H107.559V69V69.5H128.007V69ZM107.559 69V68.5C106.992 68.5 106.51 68.2997 106.089 67.8784L105.735 68.232L105.382 68.5856C105.984 69.1883 106.718 69.5 107.559 69.5V69ZM105.735 68.232L106.089 67.8784C105.668 67.4572 105.467 66.9752 105.467 66.408H104.967H104.467C104.467 67.2488 104.779 67.9828 105.382 68.5856L105.735 68.232ZM104.967 66.408H105.467V45H104.967H104.467V66.408H104.967ZM104.967 45L105.396 44.7421L81.2996 4.71014L80.8713 4.96799L80.4429 5.22585L104.539 45.2579L104.967 45ZM80.8713 4.96799L81.3185 4.74439C81.1627 4.43286 81.0833 4.09385 81.0833 3.72H80.5833H80.0833C80.0833 4.24214 80.1958 4.73513 80.424 5.1916L80.8713 4.96799ZM80.5833 3.72H81.0833C81.0833 3.43188 81.2013 3.13701 81.5128 2.82555L81.1592 2.472L80.8057 2.11844C80.3492 2.57499 80.0833 3.11212 80.0833 3.72H80.5833ZM81.1592 2.472L81.5128 2.82555C81.8773 2.46102 82.2657 2.3 82.6953 2.3V1.8V1.3C81.9728 1.3 81.3372 1.58697 80.8057 2.11845L81.1592 2.472ZM82.6953 1.8V2.3H102.951V1.8V1.3H82.6953V1.8ZM102.951 1.8V2.3C104.576 2.3 105.715 2.95018 106.452 4.25402L106.887 4.008L107.323 3.76197C106.395 2.12181 104.91 1.3 102.951 1.3V1.8ZM106.887 4.008L106.453 4.25583L117.301 23.2638L117.735 23.016L118.17 22.7682L107.322 3.76016L106.887 4.008ZM117.735 23.016L118.166 23.2707L129.302 4.45466L128.871 4.2L128.441 3.94534L117.305 22.7613L117.735 23.016ZM128.871 4.2L129.3 4.45725C130.178 2.9933 131.367 2.3 132.903 2.3V1.8V1.3C130.983 1.3 129.484 2.20669 128.443 3.94275L128.871 4.2ZM232.034 41.928L232.368 42.2997L232.371 42.297L232.034 41.928ZM196.514 47.976V47.476H196.014V47.976H196.514ZM195.746 68.232L196.099 68.5856L195.746 68.232ZM196.61 19.656V19.156H196.11V19.656H196.61ZM196.61 30.216H196.11V30.716H196.61V30.216ZM212.354 28.872L212.013 28.5065L212.006 28.5124L212 28.5184L212.354 28.872ZM212.45 21.192L212.826 20.8627L212.45 21.192ZM173.282 1.8V2.3H209.186V1.8V1.3H173.282V1.8ZM209.186 1.8V2.3C218.194 2.3 225.269 4.4879 230.466 8.80849L230.786 8.424L231.105 8.03951C225.679 3.52809 218.353 1.3 209.186 1.3V1.8ZM230.786 8.424L230.466 8.80849C235.664 13.1294 238.254 18.6525 238.254 25.416H238.754H239.254C239.254 18.3555 236.532 12.5506 231.105 8.03951L230.786 8.424ZM238.754 25.416H238.254C238.254 32.2091 236.058 37.5713 231.696 41.559L232.034 41.928L232.371 42.297C236.97 38.0927 239.254 32.4469 239.254 25.416H238.754ZM232.034 41.928L231.699 41.5564C227.36 45.4616 219.902 47.476 209.186 47.476V47.976V48.476C219.974 48.476 227.747 46.4584 232.368 42.2996L232.034 41.928ZM209.186 47.976V47.476H196.514V47.976V48.476H209.186V47.976ZM196.514 47.976H196.014V66.408H196.514H197.014V47.976H196.514ZM196.514 66.408H196.014C196.014 66.9752 195.813 67.4572 195.392 67.8784L195.746 68.232L196.099 68.5856C196.702 67.9828 197.014 67.2488 197.014 66.408H196.514ZM195.746 68.232L195.392 67.8784C194.971 68.2997 194.489 68.5 193.922 68.5V69V69.5C194.763 69.5 195.497 69.1883 196.099 68.5856L195.746 68.232ZM193.922 69V68.5H173.282V69V69.5H193.922V69ZM173.282 69V68.5C172.715 68.5 172.233 68.2997 171.811 67.8784L171.458 68.232L171.104 68.5856C171.707 69.1883 172.441 69.5 173.282 69.5V69ZM171.458 68.232L171.811 67.8784C171.39 67.4572 171.19 66.9752 171.19 66.408H170.69H170.19C170.19 67.2488 170.501 67.9828 171.104 68.5856L171.458 68.232ZM170.69 66.408H171.19V4.392H170.69H170.19V66.408H170.69ZM170.69 4.392H171.19C171.19 3.82478 171.39 3.34278 171.811 2.92155L171.458 2.568L171.104 2.21444C170.501 2.81722 170.19 3.55122 170.19 4.392H170.69ZM171.458 2.568L171.811 2.92155C172.233 2.50032 172.715 2.3 173.282 2.3V1.8V1.3C172.441 1.3 171.707 1.61167 171.104 2.21444L171.458 2.568ZM196.61 19.656H196.11V30.216H196.61H197.11V19.656H196.61ZM196.61 30.216V30.716H208.802V30.216V29.716H196.61V30.216ZM208.802 30.216V30.716C210.383 30.716 211.702 30.2305 212.707 29.2256L212.354 28.872L212 28.5184C211.213 29.3055 210.164 29.716 208.802 29.716V30.216ZM212.354 28.872L212.695 29.2375C213.778 28.2268 214.294 26.834 214.294 25.128H213.794H213.294C213.294 26.622 212.85 27.7252 212.013 28.5065L212.354 28.872ZM213.794 25.128H214.294C214.294 23.4294 213.815 21.9935 212.826 20.8627L212.45 21.192L212.073 21.5213C212.876 22.4385 213.294 23.6266 213.294 25.128H213.794ZM212.45 21.192L212.826 20.8627C211.822 19.7156 210.461 19.156 208.802 19.156V19.656V20.156C210.214 20.156 211.285 20.6204 212.073 21.5213L212.45 21.192ZM208.802 19.656V19.156H196.61V19.656V20.156H208.802V19.656ZM273.756 50.28H273.256V50.78H273.756V50.28ZM313.884 51.048L313.531 51.4016L313.884 51.048ZM313.884 68.232L313.531 67.8784L313.884 68.232ZM312.924 2.568L312.571 2.92155V2.92155L312.924 2.568ZM312.924 19.752L312.571 19.3984L312.924 19.752ZM273.756 20.52V20.02H273.256V20.52H273.756ZM273.756 26.568H273.256V27.068H273.756V26.568ZM307.644 27.336L307.291 27.6896L307.644 27.336ZM307.644 43.464L307.291 43.1104V43.1105L307.644 43.464ZM273.756 44.232V43.732H273.256V44.232H273.756ZM273.756 50.28V50.78H312.06V50.28V49.78H273.756V50.28ZM312.06 50.28V50.78C312.627 50.78 313.109 50.9803 313.531 51.4016L313.884 51.048L314.238 50.6945C313.635 50.0917 312.901 49.78 312.06 49.78V50.28ZM313.884 51.048L313.531 51.4016C313.952 51.8228 314.152 52.3048 314.152 52.872H314.652H315.152C315.152 52.0312 314.841 51.2972 314.238 50.6944L313.884 51.048ZM314.652 52.872H314.152V66.408H314.652H315.152V52.872H314.652ZM314.652 66.408H314.152C314.152 66.9752 313.952 67.4572 313.531 67.8784L313.884 68.232L314.238 68.5856C314.841 67.9828 315.152 67.2488 315.152 66.408H314.652ZM313.884 68.232L313.531 67.8784C313.109 68.2997 312.627 68.5 312.06 68.5V69V69.5C312.901 69.5 313.635 69.1883 314.238 68.5856L313.884 68.232ZM312.06 69V68.5H251.388V69V69.5H312.06V69ZM251.388 69V68.5C250.821 68.5 250.339 68.2997 249.918 67.8784L249.564 68.232L249.211 68.5856C249.813 69.1883 250.547 69.5 251.388 69.5V69ZM249.564 68.232L249.918 67.8784C249.497 67.4572 249.296 66.9752 249.296 66.408H248.796H248.296C248.296 67.2488 248.608 67.9828 249.211 68.5856L249.564 68.232ZM248.796 66.408H249.296V4.392H248.796H248.296V66.408H248.796ZM248.796 4.392H249.296C249.296 3.82478 249.497 3.34278 249.918 2.92155L249.564 2.568L249.211 2.21444C248.608 2.81722 248.296 3.55122 248.296 4.392H248.796ZM249.564 2.568L249.918 2.92155C250.339 2.50032 250.821 2.3 251.388 2.3V1.8V1.3C250.547 1.3 249.813 1.61167 249.211 2.21444L249.564 2.568ZM251.388 1.8V2.3H311.1V1.8V1.3H251.388V1.8ZM311.1 1.8V2.3C311.667 2.3 312.149 2.50033 312.571 2.92155L312.924 2.568L313.278 2.21445C312.675 1.61167 311.941 1.3 311.1 1.3V1.8ZM312.924 2.568L312.571 2.92155C312.992 3.34278 313.192 3.82478 313.192 4.392H313.692H314.192C314.192 3.55122 313.881 2.81722 313.278 2.21444L312.924 2.568ZM313.692 4.392H313.192V17.928H313.692H314.192V4.392H313.692ZM313.692 17.928H313.192C313.192 18.4952 312.992 18.9772 312.571 19.3984L312.924 19.752L313.278 20.1056C313.881 19.5028 314.192 18.7688 314.192 17.928H313.692ZM312.924 19.752L312.571 19.3984C312.149 19.8197 311.667 20.02 311.1 20.02V20.52V21.02C311.941 21.02 312.675 20.7083 313.278 20.1056L312.924 19.752ZM311.1 20.52V20.02H273.756V20.52V21.02H311.1V20.52ZM273.756 20.52H273.256V26.568H273.756H274.256V20.52H273.756ZM273.756 26.568V27.068H305.82V26.568V26.068H273.756V26.568ZM305.82 26.568V27.068C306.387 27.068 306.869 27.2683 307.291 27.6896L307.644 27.336L307.998 26.9824C307.395 26.3797 306.661 26.068 305.82 26.068V26.568ZM307.644 27.336L307.291 27.6896C307.712 28.1108 307.912 28.5928 307.912 29.16H308.412H308.912C308.912 28.3192 308.601 27.5852 307.998 26.9824L307.644 27.336ZM308.412 29.16H307.912V41.64H308.412H308.912V29.16H308.412ZM308.412 41.64H307.912C307.912 42.2072 307.712 42.6892 307.291 43.1104L307.644 43.464L307.998 43.8176C308.601 43.2148 308.912 42.4808 308.912 41.64H308.412ZM307.644 43.464L307.291 43.1105C306.869 43.5317 306.387 43.732 305.82 43.732V44.232V44.732C306.661 44.732 307.395 44.4203 307.998 43.8176L307.644 43.464ZM305.82 44.232V43.732H273.756V44.232V44.732H305.82V44.232ZM273.756 44.232H273.256V50.28H273.756H274.256V44.232H273.756ZM482.193 66.024L482.641 65.8003L482.634 65.7882L482.193 66.024ZM481.713 68.424L481.36 68.0704V68.0704L481.713 68.424ZM454.449 66.6L453.992 66.8031L453.995 66.8098L453.999 66.8164L454.449 66.6ZM446.001 47.592L446.458 47.3889L446.326 47.092H446.001V47.592ZM437.937 47.592V47.092H437.437V47.592H437.937ZM437.169 68.232L436.816 67.8784L437.169 68.232ZM470.385 43.944L470.134 43.5117L469.717 43.7541L469.944 44.1798L470.385 43.944ZM437.937 19.656V19.156H437.437V19.656H437.937ZM437.937 29.832H437.437V30.332H437.937V29.832ZM453.201 28.488L453.581 28.8134L453.586 28.807L453.592 28.8003L453.201 28.488ZM453.201 21.288L452.781 21.5596L452.791 21.5742L452.801 21.588L453.201 21.288ZM482.193 66.024L481.746 66.2476C481.825 66.4059 481.885 66.6701 481.885 67.08H482.385H482.885C482.885 66.5939 482.817 66.1541 482.64 65.8004L482.193 66.024ZM482.385 67.08H481.885C481.885 67.3486 481.753 67.6769 481.36 68.0704L481.713 68.424L482.067 68.7776C482.569 68.2751 482.885 67.7074 482.885 67.08H482.385ZM481.713 68.424L481.36 68.0704C481.076 68.3545 480.726 68.5 480.273 68.5V69V69.5C480.973 69.5 481.583 69.2615 482.067 68.7775L481.713 68.424ZM480.273 69V68.5H458.481V69V69.5H480.273V69ZM458.481 69V68.5C457.591 68.5 456.868 68.3149 456.289 67.9704C455.713 67.6273 455.247 67.1072 454.9 66.3836L454.449 66.6L453.999 66.8164C454.419 67.6928 455.01 68.3727 455.777 68.8296C456.543 69.2851 457.452 69.5 458.481 69.5V69ZM454.449 66.6L454.906 66.3969L446.458 47.3889L446.001 47.592L445.544 47.7951L453.992 66.8031L454.449 66.6ZM446.001 47.592V47.092H437.937V47.592V48.092H446.001V47.592ZM437.937 47.592H437.437V66.408H437.937H438.437V47.592H437.937ZM437.937 66.408H437.437C437.437 66.9752 437.237 67.4572 436.816 67.8784L437.169 68.232L437.523 68.5856C438.126 67.9828 438.437 67.2488 438.437 66.408H437.937ZM437.169 68.232L436.816 67.8784C436.394 68.2997 435.912 68.5 435.345 68.5V69V69.5C436.186 69.5 436.92 69.1883 437.523 68.5856L437.169 68.232ZM435.345 69V68.5H414.609V69V69.5H435.345V69ZM414.609 69V68.5C414.042 68.5 413.56 68.2997 413.139 67.8784L412.785 68.232L412.432 68.5856C413.034 69.1883 413.768 69.5 414.609 69.5V69ZM412.785 68.232L413.139 67.8784C412.718 67.4572 412.517 66.9752 412.517 66.408H412.017H411.517C411.517 67.2488 411.829 67.9828 412.432 68.5856L412.785 68.232ZM412.017 66.408H412.517V4.392H412.017H411.517V66.408H412.017ZM412.017 4.392H412.517C412.517 3.82478 412.718 3.34278 413.139 2.92155L412.785 2.568L412.432 2.21444C411.829 2.81722 411.517 3.55122 411.517 4.392H412.017ZM412.785 2.568L413.139 2.92155C413.56 2.50032 414.042 2.3 414.609 2.3V1.8V1.3C413.768 1.3 413.034 1.61167 412.432 2.21444L412.785 2.568ZM414.609 1.8V2.3H451.953V1.8V1.3H414.609V1.8ZM451.953 1.8V2.3C460.644 2.3 467.465 4.36124 472.47 8.42805L472.785 8.04L473.101 7.65194C467.866 3.39875 460.798 1.3 451.953 1.3V1.8ZM472.785 8.04L472.47 8.42805C477.462 12.4841 479.965 17.9997 479.965 25.032H480.465H480.965C480.965 17.7283 478.348 11.9159 473.101 7.65194L472.785 8.04ZM480.465 25.032H479.965C479.965 33.5836 476.679 39.7094 470.134 43.5117L470.385 43.944L470.636 44.3763C477.531 40.3706 480.965 33.8884 480.965 25.032H480.465ZM470.385 43.944L469.944 44.1798L481.752 66.2598L482.193 66.024L482.634 65.7882L470.826 43.7082L470.385 43.944ZM437.937 19.656H437.437V29.832H437.937H438.437V19.656H437.937ZM437.937 29.832V30.332H449.937V29.832V29.332H437.937V29.832ZM449.937 29.832V30.332C451.46 30.332 452.699 29.8418 453.581 28.8134L453.201 28.488L452.822 28.1626C452.167 28.9262 451.23 29.332 449.937 29.332V29.832ZM453.201 28.488L453.592 28.8003C454.441 27.739 454.853 26.4402 454.853 24.936H454.353H453.853C453.853 26.2478 453.498 27.317 452.811 28.1757L453.201 28.488ZM454.353 24.936H454.853C454.853 23.4312 454.441 22.1073 453.601 20.988L453.201 21.288L452.801 21.588C453.498 22.5167 453.853 23.6248 453.853 24.936H454.353ZM453.201 21.288L453.621 21.0164C452.811 19.7646 451.552 19.156 449.937 19.156V19.656V20.156C451.267 20.156 452.183 20.6354 452.781 21.5596L453.201 21.288ZM449.937 19.656V19.156H437.937V19.656V20.156H449.937V19.656ZM551.18 62.952L550.883 62.5496L550.881 62.551L551.18 62.952ZM500.012 62.952L499.713 63.353L499.715 63.3544L500.012 62.952ZM515.084 2.568L515.437 2.21445V2.21444L515.084 2.568ZM518.444 48.648L518.128 49.0357L518.135 49.0412L518.444 48.648ZM532.748 48.648L532.439 48.2548L532.432 48.2604L532.748 48.648ZM559.916 2.568L560.269 2.21445V2.21444L559.916 2.568ZM551.18 62.952L550.881 62.551C544.722 67.1385 536.328 69.46 525.644 69.46V69.96V70.46C536.464 70.46 545.093 68.1095 551.478 63.353L551.18 62.952ZM525.644 69.96V69.46C514.96 69.46 506.532 67.1387 500.309 62.5496L500.012 62.952L499.715 63.3544C506.163 68.1093 514.823 70.46 525.644 70.46V69.96ZM500.012 62.952L500.31 62.551C494.198 57.9982 491.104 50.8729 491.104 41.064H490.604H490.104C490.104 51.0951 493.281 58.5618 499.713 63.353L500.012 62.952ZM490.604 41.064H491.104V4.392H490.604H490.104V41.064H490.604ZM490.604 4.392H491.104C491.104 3.82478 491.304 3.34278 491.725 2.92155L491.372 2.568L491.018 2.21444C490.415 2.81722 490.104 3.55122 490.104 4.392H490.604ZM491.372 2.568L491.725 2.92155C492.147 2.50032 492.629 2.3 493.196 2.3V1.8V1.3C492.355 1.3 491.621 1.61167 491.018 2.21444L491.372 2.568ZM493.196 1.8V2.3H513.26V1.8V1.3H493.196V1.8ZM513.26 1.8V2.3C513.827 2.3 514.309 2.50032 514.73 2.92155L515.084 2.568L515.437 2.21444C514.835 1.61167 514.101 1.3 513.26 1.3V1.8ZM515.084 2.568L514.73 2.92155C515.151 3.34278 515.352 3.82478 515.352 4.392H515.852H516.352C516.352 3.55122 516.04 2.81722 515.437 2.21445L515.084 2.568ZM515.852 4.392H515.352V42.6H515.852H516.352V4.392H515.852ZM515.852 42.6H515.352C515.352 45.3446 516.262 47.5154 518.128 49.0356L518.444 48.648L518.76 48.2604C517.169 46.9646 516.352 45.1034 516.352 42.6H515.852ZM518.444 48.648L518.135 49.0412C520.04 50.5377 522.56 51.26 525.644 51.26V50.76V50.26C522.712 50.26 520.432 49.5743 518.753 48.2548L518.444 48.648ZM525.644 50.76V51.26C528.727 51.26 531.22 50.5382 533.064 49.0356L532.748 48.648L532.432 48.2604C530.82 49.5738 528.577 50.26 525.644 50.26V50.76ZM532.748 48.648L533.057 49.0412C534.989 47.5233 535.936 45.3512 535.936 42.6H535.436H534.936C534.936 45.0968 534.091 46.9567 532.439 48.2548L532.748 48.648ZM535.436 42.6H535.936V4.392H535.436H534.936V42.6H535.436ZM535.436 4.392H535.936C535.936 3.82478 536.136 3.34278 536.557 2.92155L536.204 2.568L535.85 2.21444C535.247 2.81722 534.936 3.55122 534.936 4.392H535.436ZM536.204 2.568L536.557 2.92155C536.979 2.50032 537.461 2.3 538.028 2.3V1.8V1.3C537.187 1.3 536.453 1.61167 535.85 2.21444L536.204 2.568ZM538.028 1.8V2.3H558.092V1.8V1.3H538.028V1.8ZM558.092 1.8V2.3C558.659 2.3 559.141 2.50033 559.562 2.92155L559.916 2.568L560.269 2.21444C559.667 1.61167 558.933 1.3 558.092 1.3V1.8ZM559.916 2.568L559.562 2.92155C559.983 3.34277 560.184 3.82478 560.184 4.392H560.684H561.184C561.184 3.55122 560.872 2.81722 560.269 2.21445L559.916 2.568ZM560.684 4.392H560.184V41.064H560.684H561.184V4.392H560.684ZM560.684 41.064H560.184C560.184 50.871 557.058 57.9961 550.883 62.5496L551.18 62.952L551.477 63.3544C557.973 58.5639 561.184 51.097 561.184 41.064H560.684ZM612.486 26.184L612.544 25.6873L612.544 25.6873L612.486 26.184ZM634.854 33L634.553 33.3994L634.56 33.4041L634.854 33ZM631.878 63.816L632.146 64.2383L631.878 63.816ZM581.19 64.104L580.911 64.5187L580.916 64.5221L581.19 64.104ZM597.51 48.648L597.157 49.0016L597.163 49.0079L597.51 48.648ZM613.062 45.768L612.89 46.2374L612.897 46.24L612.904 46.2423L613.062 45.768ZM601.638 43.752L601.579 44.2484L601.582 44.2489L601.638 43.752ZM583.206 6.984L583.491 7.39511L583.494 7.39298L583.206 6.984ZM630.246 7.272L629.956 7.67917L629.959 7.68121L630.246 7.272ZM638.598 22.248L638.273 21.8684L638.258 21.8809L638.245 21.8944L638.598 22.248ZM613.35 21.672L613.689 21.3046L613.688 21.3034L613.35 21.672ZM602.502 24.552L602.339 25.0245L602.347 25.0273L602.355 25.0299L602.502 24.552ZM612.486 26.184L612.429 26.6807C622.904 27.8942 630.248 30.1545 634.553 33.3993L634.854 33L635.155 32.6007C630.629 29.1895 623.061 26.9058 612.544 25.6873L612.486 26.184ZM634.854 33L634.56 33.4041C638.885 36.5555 641.074 41.3175 641.074 47.784H641.574H642.074C642.074 41.0665 639.783 35.9725 635.149 32.5959L634.854 33ZM641.574 47.784H641.074C641.074 54.1747 637.957 59.372 631.611 63.3937L631.878 63.816L632.146 64.2383C638.727 60.0679 642.074 54.5773 642.074 47.784H641.574ZM631.878 63.816L631.611 63.3937C625.253 67.4226 616.78 69.46 606.15 69.46V69.96V70.46C616.897 70.46 625.576 68.4014 632.146 64.2383L631.878 63.816ZM606.15 69.96V69.46C595.514 69.46 587.304 67.5159 581.464 63.6859L581.19 64.104L580.916 64.5221C586.981 68.5001 595.411 70.46 606.15 70.46V69.96ZM581.19 64.104L581.47 63.6894C575.683 59.7897 572.858 55.0661 572.858 49.512H572.358H571.858C571.858 55.4779 574.921 60.4823 580.911 64.5186L581.19 64.104ZM572.358 49.512H572.858C572.858 48.8909 573.019 48.5154 573.256 48.2893C573.496 48.0592 573.902 47.9 574.566 47.9V47.4V46.9C573.759 46.9 573.06 47.0928 572.565 47.5667C572.065 48.0445 571.858 48.7251 571.858 49.512H572.358ZM574.566 47.4V47.9H594.246V47.4V46.9H574.566V47.4ZM594.246 47.4V47.9C595.478 47.9 596.432 48.2769 597.157 49.0015L597.51 48.648L597.864 48.2944C596.924 47.3551 595.702 46.9 594.246 46.9V47.4ZM597.51 48.648L597.163 49.0079C599.098 50.8739 602.368 51.74 606.822 51.74V51.24V50.74C602.444 50.74 599.506 49.8781 597.857 48.2881L597.51 48.648ZM606.822 51.24V51.74C609.875 51.74 612.216 51.5084 613.808 51.0222C615.367 50.5462 616.442 49.7416 616.442 48.456H615.942H615.442C615.442 49.0264 614.997 49.6137 613.516 50.0658C612.069 50.5076 609.849 50.74 606.822 50.74V51.24ZM615.942 48.456H616.442C616.442 46.951 615.173 45.9444 613.22 45.2937L613.062 45.768L612.904 46.2423C614.792 46.8716 615.442 47.657 615.442 48.456H615.942ZM613.062 45.768L613.234 45.2986C611.249 44.5707 607.383 43.8943 601.694 43.2551L601.638 43.752L601.582 44.2489C607.286 44.8897 611.035 45.5572 612.89 46.2374L613.062 45.768ZM601.638 43.752L601.698 43.2556C592.683 42.1725 585.993 39.9092 581.566 36.5152C577.166 33.1407 574.97 28.6253 574.97 22.92H574.47H573.97C573.97 28.9267 576.303 33.7393 580.958 37.3088C585.588 40.8587 592.482 43.1555 601.579 44.2484L601.638 43.752ZM574.47 22.92H574.97C574.97 16.506 577.79 11.3419 583.491 7.39509L583.206 6.984L582.922 6.5729C576.975 10.6901 573.97 16.15 573.97 22.92H574.47ZM583.206 6.984L583.494 7.39298C589.208 3.37437 596.872 1.34 606.534 1.34V0.839996V0.339996C596.74 0.339996 588.853 2.40163 582.919 6.57502L583.206 6.984ZM606.534 0.839996V1.34C616.256 1.34 624.048 3.46844 629.956 7.67916L630.246 7.272L630.536 6.86484C624.412 2.49955 616.397 0.339996 606.534 0.339996V0.839996ZM630.246 7.272L629.959 7.68121C635.918 11.865 638.77 16.2138 638.77 20.712H639.27H639.77C639.77 15.7382 636.607 11.127 630.534 6.86279L630.246 7.272ZM639.27 20.712H638.77C638.77 21.22 638.6 21.5881 638.273 21.8684L638.598 22.248L638.924 22.6276C639.493 22.1399 639.77 21.484 639.77 20.712H639.27ZM638.598 22.248L638.245 21.8944C637.98 22.1592 637.579 22.324 636.966 22.324V22.824V23.324C637.762 23.324 638.449 23.1048 638.952 22.6016L638.598 22.248ZM636.966 22.824V22.324H616.326V22.824V23.324H636.966V22.824ZM616.326 22.824V22.324C615.298 22.324 614.427 21.9857 613.689 21.3046L613.35 21.672L613.011 22.0394C613.937 22.8943 615.051 23.324 616.326 23.324V22.824ZM613.35 21.672L613.688 21.3034C612.024 19.7784 609.577 19.06 606.438 19.06V19.56V20.06C609.443 20.06 611.604 20.7496 613.012 22.0406L613.35 21.672ZM606.438 19.56V19.06C604.274 19.06 602.586 19.2839 601.421 19.7707C600.834 20.0162 600.353 20.3395 600.017 20.7602C599.676 21.1888 599.506 21.6919 599.506 22.248H600.006H600.506C600.506 21.9081 600.605 21.6272 600.799 21.3838C601 21.1325 601.322 20.8958 601.807 20.6933C602.786 20.2841 604.314 20.06 606.438 20.06V19.56ZM600.006 22.248H599.506C599.506 23.5645 600.655 24.4417 602.339 25.0245L602.502 24.552L602.666 24.0795C601.021 23.5103 600.506 22.8515 600.506 22.248H600.006ZM602.502 24.552L602.355 25.0299C604.07 25.5576 607.443 26.1054 612.429 26.6807L612.486 26.184L612.544 25.6873C607.545 25.1105 604.262 24.5704 602.649 24.0741L602.502 24.552ZM722.561 2.568L722.207 2.92155V2.92155L722.561 2.568ZM722.561 68.232L722.207 67.8784L722.561 68.232ZM699.137 68.232L699.49 67.8784L699.137 68.232ZM698.369 45.96H698.869V45.46H698.369V45.96ZM679.169 45.96V45.46H678.669V45.96H679.169ZM678.401 68.232L678.047 67.8784L678.401 68.232ZM654.977 68.328L654.623 68.6816L654.635 68.6933L654.648 68.7043L654.977 68.328ZM654.977 2.568L655.33 2.92155L654.977 2.568ZM678.401 2.568L678.047 2.92155V2.92155L678.401 2.568ZM679.169 24.072H678.669V24.572H679.169V24.072ZM698.369 24.072V24.572H698.869V24.072H698.369ZM699.137 2.568L699.49 2.92155V2.92155L699.137 2.568ZM700.961 1.8V2.3H720.737V1.8V1.3H700.961V1.8ZM720.737 1.8V2.3C721.304 2.3 721.786 2.50033 722.207 2.92155L722.561 2.568L722.914 2.21445C722.312 1.61167 721.578 1.3 720.737 1.3V1.8ZM722.561 2.568L722.207 2.92155C722.628 3.34278 722.829 3.82478 722.829 4.392H723.329H723.829C723.829 3.55122 723.517 2.81722 722.914 2.21444L722.561 2.568ZM723.329 4.392H722.829V66.408H723.329H723.829V4.392H723.329ZM723.329 66.408H722.829C722.829 66.9752 722.628 67.4572 722.207 67.8784L722.561 68.232L722.914 68.5856C723.517 67.9828 723.829 67.2488 723.829 66.408H723.329ZM722.561 68.232L722.207 67.8784C721.786 68.2997 721.304 68.5 720.737 68.5V69V69.5C721.578 69.5 722.312 69.1883 722.914 68.5856L722.561 68.232ZM720.737 69V68.5H700.961V69V69.5H720.737V69ZM700.961 69V68.5C700.394 68.5 699.912 68.2997 699.49 67.8784L699.137 68.232L698.783 68.5856C699.386 69.1883 700.12 69.5 700.961 69.5V69ZM699.137 68.232L699.49 67.8784C699.069 67.4572 698.869 66.9752 698.869 66.408H698.369H697.869C697.869 67.2488 698.18 67.9828 698.783 68.5856L699.137 68.232ZM698.369 66.408H698.869V45.96H698.369H697.869V66.408H698.369ZM698.369 45.96V45.46H679.169V45.96V46.46H698.369V45.96ZM679.169 45.96H678.669V66.408H679.169H679.669V45.96H679.169ZM679.169 66.408H678.669C678.669 66.9752 678.468 67.4572 678.047 67.8784L678.401 68.232L678.754 68.5856C679.357 67.9828 679.669 67.2488 679.669 66.408H679.169ZM678.401 68.232L678.047 67.8784C677.626 68.2997 677.144 68.5 676.577 68.5V69V69.5C677.418 69.5 678.152 69.1883 678.754 68.5856L678.401 68.232ZM676.577 69V68.5H656.801V69V69.5H676.577V69ZM656.801 69V68.5C656.213 68.5 655.723 68.317 655.306 67.9517L654.977 68.328L654.648 68.7043C655.254 69.235 655.98 69.5 656.801 69.5V69ZM654.977 68.328L655.33 67.9744C654.918 67.5623 654.709 67.0523 654.709 66.408H654.209H653.709C653.709 67.2997 654.011 68.0697 654.623 68.6816L654.977 68.328ZM654.209 66.408H654.709V4.392H654.209H653.709V66.408H654.209ZM654.209 4.392H654.709C654.709 3.82478 654.909 3.34278 655.33 2.92155L654.977 2.568L654.623 2.21444C654.02 2.81722 653.709 3.55122 653.709 4.392H654.209ZM654.977 2.568L655.33 2.92155C655.752 2.50032 656.234 2.3 656.801 2.3V1.8V1.3C655.96 1.3 655.226 1.61167 654.623 2.21444L654.977 2.568ZM656.801 1.8V2.3H676.577V1.8V1.3H656.801V1.8ZM676.577 1.8V2.3C677.144 2.3 677.626 2.50032 678.047 2.92155L678.401 2.568L678.754 2.21445C678.152 1.61167 677.418 1.3 676.577 1.3V1.8ZM678.401 2.568L678.047 2.92155C678.468 3.34278 678.669 3.82478 678.669 4.392H679.169H679.669C679.669 3.55122 679.357 2.81722 678.754 2.21444L678.401 2.568ZM679.169 4.392H678.669V24.072H679.169H679.669V4.392H679.169ZM679.169 24.072V24.572H698.369V24.072V23.572H679.169V24.072ZM698.369 24.072H698.869V4.392H698.369H697.869V24.072H698.369ZM698.369 4.392H698.869C698.869 3.82478 699.069 3.34278 699.49 2.92155L699.137 2.568L698.783 2.21444C698.18 2.81722 697.869 3.55122 697.869 4.392H698.369ZM699.137 2.568L699.49 2.92155C699.912 2.50033 700.394 2.3 700.961 2.3V1.8V1.3C700.12 1.3 699.386 1.61167 698.783 2.21445L699.137 2.568Z" fill="#454545"/>
<defs>
<filter id="filter0_i_101_378" x="-3.94336" y="-3.66003" width="727.772" height="74.12" filterUnits="userSpaceOnUse" color-interpolation-filters="sRGB">
<feFlood flood-opacity="0" result="BackgroundImageFix"/>
<feBlend mode="normal" in="SourceGraphic" in2="BackgroundImageFix" result="shape"/>
<feColorMatrix in="SourceAlpha" type="matrix" values="0 0 0 0 0 0 0 0 0 0 0 0 0 0 0 0 0 0 127 0" result="hardAlpha"/>
<feOffset dx="-4" dy="-4"/>
<feGaussianBlur stdDeviation="2"/>
<feComposite in2="hardAlpha" operator="arithmetic" k2="-1" k3="1"/>
<feColorMatrix type="matrix" values="0 0 0 0 0.995192 0 0 0 0 0.731084 0 0 0 0 0.643047 0 0 0 1 0"/>
<feBlend mode="normal" in2="shape" result="effect1_innerShadow_101_378"/>
</filter>
</defs>
</svg>
