<svg width="24" height="24" viewBox="0 0 24 24" fill="none" xmlns="http://www.w3.org/2000/svg">
<path d="M16 22C16 23.1046 15.1046 24 14 24H6C4.89543 24 4 23.1046 4 22V22C4 20.8954 4.89543 20 6 20V20C7.10457 20 8 19.1046 8 18V6C8 4.89543 7.10457 4 6 4H2C0.895431 4 0 3.10457 0 2V2C0 0.895431 0.895431 0 2 0H18C19.1046 0 20 0.895431 20 2V2C20 3.10457 19.1046 4 18 4H14C12.8954 4 12 4.89543 12 6V18C12 19.1046 12.8954 20 14 20V20C15.1046 20 16 20.8954 16 22V22Z" fill="#37CDA5"/>
<rect x="17" y="7" width="6" height="2" rx="1" fill="url(#paint0_linear_136_312)"/>
<rect x="15" y="15" width="6" height="2" rx="1" fill="url(#paint1_linear_136_312)"/>
<rect x="16" y="11" width="8" height="2" rx="1" fill="url(#paint2_linear_136_312)"/>
<defs>
<linearGradient id="paint0_linear_136_312" x1="17" y1="8" x2="23" y2="8" gradientUnits="userSpaceOnUse">
<stop stop-color="#37CDA5"/>
<stop offset="1" stop-color="#1C6753" stop-opacity="0"/>
</linearGradient>
<linearGradient id="paint1_linear_136_312" x1="15" y1="16" x2="21" y2="16" gradientUnits="userSpaceOnUse">
<stop stop-color="#37CDA5"/>
<stop offset="1" stop-color="#1C6753" stop-opacity="0"/>
</linearGradient>
<linearGradient id="paint2_linear_136_312" x1="16" y1="12" x2="24" y2="12" gradientUnits="userSpaceOnUse">
<stop stop-color="#37CDA5"/>
<stop offset="1" stop-color="#1C6753" stop-opacity="0"/>
</linearGradient>
</defs>
</svg>
